<svg width="540" height="540" viewBox="0 0 540 540" fill="none" xmlns="http://www.w3.org/2000/svg">
<g opacity="0.76">
<path style="mix-blend-mode:multiply" fill-rule="evenodd" clip-rule="evenodd" d="M195.367 126.984C114.506 126.984 51.1609 189.9 51.1609 270.216C51.1609 348.958 115.85 413.016 195.367 413.016C280.841 413.016 329.113 362.689 332.046 271.043H196.629V304.223H277.082L276.955 313.341C276.464 349.255 234.368 373.371 195.367 373.371C141.039 373.371 96.8263 327.099 96.8263 270.216C96.8263 212.605 140.113 167.483 195.367 167.483C220.075 167.483 243.248 176.916 261.518 194.216L294.734 165.874C269.491 141.056 233.796 126.984 195.367 126.984M195.367 431C105.843 431 33 358.867 33 270.216C33 179.811 104.327 109 195.367 109C242.34 109 285.835 127.838 314.693 160.676L320.677 167.492L260.065 219.187L254.136 212.533C238.554 195.079 217.687 185.467 195.367 185.467C150.292 185.467 114.987 222.694 114.987 270.216C114.987 317.181 151.046 355.387 195.367 355.387C218.413 355.387 249.623 342.978 257.132 322.207H178.468V253.059H350.343V262.051C350.343 369.414 293.863 431 195.367 431Z" fill="#A2DCE7"/>
<path style="mix-blend-mode:multiply" fill-rule="evenodd" clip-rule="evenodd" d="M350.373 252.958H397.309C417.105 252.958 426.004 233.824 426.004 220.237C426.004 206.659 417.641 187.524 399.044 187.524H350.373V252.958ZM397.31 270.942H332.212V169.541H399.044C427.293 169.541 444.165 195.32 444.165 220.237C444.165 245.163 426.639 270.942 397.31 270.942V270.942ZM286.537 410.344H332.212V307.998H400.351C466.403 307.998 489.839 260.718 489.839 220.237C489.839 179.558 466.403 132.053 400.351 132.053H286.537V410.344ZM350.373 428.328H268.376V114.07H400.351C474.711 114.07 508 167.392 508 220.237C508 272.876 474.711 325.982 400.351 325.982H350.373V428.328Z" fill="#EB5A00"/>
</g>
</svg>
