<svg xmlns="http://www.w3.org/2000/svg" viewBox="0 0 100 100"><path fill="#fff" d="M100.0,50.0 L99.97,65.36 L99.89,70.26 L99.75,73.81 L99.56,76.68 L99.31,79.12 L99.01,81.26 L98.64,83.17 L98.22,84.89 L97.74,86.46 L97.2,87.89 L96.6,89.21 L95.94,90.43 L95.2,91.54 L94.4,92.58 L93.53,93.53 L92.58,94.4 L91.54,95.2 L90.43,95.94 L89.21,96.6 L87.89,97.2 L86.46,97.74 L84.89,98.22 L83.17,98.64 L81.26,99.01 L79.12,99.31 L76.68,99.56 L73.81,99.75 L70.26,99.89 L65.36,99.97 L50.0,100.0 L34.64,99.97 L29.74,99.89 L26.19,99.75 L23.32,99.56 L20.88,99.31 L18.74,99.01 L16.83,98.64 L15.11,98.22 L13.54,97.74 L12.11,97.2 L10.79,96.6 L9.57,95.94 L8.46,95.2 L7.42,94.4 L6.47,93.53 L5.6,92.58 L4.8,91.54 L4.06,90.43 L3.4,89.21 L2.8,87.89 L2.26,86.46 L1.78,84.89 L1.36,83.17 L0.99,81.26 L0.69,79.12 L0.44,76.68 L0.25,73.81 L0.11,70.26 L0.03,65.36 L0.0,50.0 L0.03,34.64 L0.11,29.74 L0.25,26.19 L0.44,23.32 L0.69,20.88 L0.99,18.74 L1.36,16.83 L1.78,15.11 L2.26,13.54 L2.8,12.11 L3.4,10.79 L4.06,9.57 L4.8,8.46 L5.6,7.42 L6.47,6.47 L7.42,5.6 L8.46,4.8 L9.57,4.06 L10.79,3.4 L12.11,2.8 L13.54,2.26 L15.11,1.78 L16.83,1.36 L18.74,0.99 L20.88,0.69 L23.32,0.44 L26.19,0.25 L29.74,0.11 L34.64,0.03 L50.0,0.0 L65.36,0.03 L70.26,0.11 L73.81,0.25 L76.68,0.44 L79.12,0.69 L81.26,0.99 L83.17,1.36 L84.89,1.78 L86.46,2.26 L87.89,2.8 L89.21,3.4 L90.43,4.06 L91.54,4.8 L92.58,5.6 L93.53,6.47 L94.4,7.42 L95.2,8.46 L95.94,9.57 L96.6,10.79 L97.2,12.11 L97.74,13.54 L98.22,15.11 L98.64,16.83 L99.01,18.74 L99.31,20.88 L99.56,23.32 L99.75,26.19 L99.89,29.74 L99.97,34.64 Z"/></svg>
